HIERARCHY
ROOT Hips
{
	OFFSET 0.000000 0.000000 0.000000
	CHANNELS 6 Xposition Yposition Zposition Zrotation Yrotation Xrotation 
	JOINT LHipJoint
	{
		OFFSET 0.000000 0.000000 0.000000
		CHANNELS 3 Zrotation Yrotation Xrotation
		JOINT LeftUpLeg
		{
			OFFSET 1.363060 -1.794630 0.839290
			CHANNELS 3 Zrotation Yrotation Xrotation
			JOINT LeftLeg
			{
				OFFSET 2.448110 -6.726130 0.000000
				CHANNELS 3 Zrotation Yrotation Xrotation
				JOINT LeftFoot
				{
					OFFSET 2.562200 -7.039590 0.000000
					CHANNELS 3 Zrotation Yrotation Xrotation
					JOINT LeftToeBase
					{
						OFFSET 0.157640 -0.433110 2.322550
						CHANNELS 3 Zrotation Yrotation Xrotation
						End Site
						{
							OFFSET 0.000000 0.000000 0.000000
						}
					}
				}
			}
		}
	}
	JOINT RHipJoint
	{
		OFFSET 0.000000 0.000000 0.000000
		CHANNELS 3 Zrotation Yrotation Xrotation
		JOINT RightUpLeg
		{
			OFFSET -1.305520 -1.794630 0.839290
			CHANNELS 3 Zrotation Yrotation Xrotation
			JOINT RightLeg
			{
				OFFSET -2.542530 -6.985550 0.000000
				CHANNELS 3 Zrotation Yrotation Xrotation
				JOINT RightFoot
				{
					OFFSET -2.568260 -7.056230 0.000000
					CHANNELS 3 Zrotation Yrotation Xrotation
					JOINT RightToeBase
					{
						OFFSET -0.164730 -0.452590 2.363150
						CHANNELS 3 Zrotation Yrotation Xrotation
						End Site
						{
							OFFSET 0.000000 0.000000 0.000000
						}
					}
				}
			}
		}
	}
	JOINT LowerBack
	{
		OFFSET 0.000000 0.000000 0.000000
		CHANNELS 3 Zrotation Yrotation Xrotation
		JOINT Spine
		{
			OFFSET 0.028270 2.035590 -0.193380
			CHANNELS 3 Zrotation Yrotation Xrotation
			JOINT Spine1
			{
				OFFSET 0.056720 2.048850 -0.042750
				CHANNELS 3 Zrotation Yrotation Xrotation
				JOINT Neck
				{
					OFFSET 0.000000 0.000000 0.000000
					CHANNELS 3 Zrotation Yrotation Xrotation
					JOINT Neck1
					{
						OFFSET -0.054170 1.746240 0.172020
						CHANNELS 3 Zrotation Yrotation Xrotation
						JOINT Head
						{
							OFFSET 0.104070 1.761360 -0.123970
							CHANNELS 3 Zrotation Yrotation Xrotation
							End Site
							{
								OFFSET 0.000000 0.000000 0.000000
							}
						}
					}
				}
				JOINT LeftShoulder
				{
					OFFSET 0.000000 0.000000 0.000000
					CHANNELS 3 Zrotation Yrotation Xrotation
					JOINT LeftArm
					{
						OFFSET 3.362410 1.200890 -0.311210
						CHANNELS 3 Zrotation Yrotation Xrotation
						JOINT LeftForeArm
						{
							OFFSET 4.983000 -0.000000 -0.000000
							CHANNELS 3 Zrotation Yrotation Xrotation
							JOINT LeftHand
							{
								OFFSET 3.483560 -0.000000 -0.000000
								CHANNELS 3 Zrotation Yrotation Xrotation
								JOINT LeftFingerBase
								{
									OFFSET 0.000000 0.000000 0.000000
									CHANNELS 3 Zrotation Yrotation Xrotation
									JOINT LeftHandIndex1
									{
										OFFSET 0.715260 -0.000000 -0.000000
										CHANNELS 3 Zrotation Yrotation Xrotation
										End Site
										{
											OFFSET 0.000000 0.000000 0.000000
										}
									}
								}
								JOINT LThumb
								{
									OFFSET 0.000000 0.000000 0.000000
									CHANNELS 3 Zrotation Yrotation Xrotation
									End Site
									{
										OFFSET 0.000000 0.000000 0.000000
									}
								}
							}
						}
					}
				}
				JOINT RightShoulder
				{
					OFFSET 0.000000 0.000000 0.000000
					CHANNELS 3 Zrotation Yrotation Xrotation
					JOINT RightArm
					{
						OFFSET -3.136600 1.374050 -0.404650
						CHANNELS 3 Zrotation Yrotation Xrotation
						JOINT RightForeArm
						{
							OFFSET -5.241900 -0.000000 -0.000000
							CHANNELS 3 Zrotation Yrotation Xrotation
							JOINT RightHand
							{
								OFFSET -3.444170 -0.000000 -0.000000
								CHANNELS 3 Zrotation Yrotation Xrotation
								JOINT RightFingerBase
								{
									OFFSET 0.000000 0.000000 0.000000
									CHANNELS 3 Zrotation Yrotation Xrotation
									JOINT RightHandIndex1
									{
										OFFSET -0.622530 -0.000000 -0.000000
										CHANNELS 3 Zrotation Yrotation Xrotation
										End Site
										{
											OFFSET 0.000000 0.000000 0.000000
										}
									}
								}
								JOINT RThumb
								{
									OFFSET 0.000000 0.000000 0.000000
									CHANNELS 3 Zrotation Yrotation Xrotation
									End Site
									{
										OFFSET 0.000000 0.000000 0.000000
									}
								}
							}
						}
					}
				}
			}
		}
	}
}
MOTION
Frames: 10
Frame Time: 0.008333
43.372543 17.721238 15.651850 31.254828 -78.065831 -37.522477 5.799848 1.948994 0.674193 -32.869167 -1.559692 8.619919 -1.649881 6.125845 18.012349 -2.768913 11.892410 -8.982175 0.399000 -4.055700 -11.233300 -7.366205 1.136830 -2.003835 26.912409 9.089371 -16.793505 -8.033493 -18.925144 56.136354 1.849262 -10.378866 -8.731534 -1.208200 6.973200 -19.636100 4.029782 -11.672365 -10.936327 -12.810110 -19.567092 12.933986 -51.134464 -1.742784 19.381089 40.417968 18.075176 -13.826982 14.050010 6.709363 16.854192 -0.396500 6.014400 9.909100 9.847374 2.779594 -0.722786 -33.980524 -10.551474 -3.646614 17.609692 -25.954698 -6.013771 -1.777687 -4.528258 -16.163745 24.622254 13.677399 8.955500 -7.125000 0.000000 0.000000 -0.298600 49.570500 -0.033700 -14.134500 -3.756257 -0.482396 149.744853 5.934379 75.502861 -8.100337 13.163058 -3.149638 1.785096 3.876657 -21.331374 -13.508632 0.987782 0.604100 7.125000 0.000000 0.000000 8.000500 -32.024800 2.562200 
43.173069 17.716022 15.742025 33.823247 -78.716366 -40.005369 5.855051 2.017675 0.680099 -33.424510 -1.051659 9.719801 -1.754654 5.767667 17.155606 -3.018553 12.786743 -9.801692 0.347100 -3.785400 -10.473800 -7.257215 1.200578 -1.973379 27.208013 9.416261 -17.419677 -6.780959 -18.232922 52.335346 1.504205 -9.676547 -12.619828 -0.306400 3.558900 -9.838900 3.997693 -11.656397 -10.981975 -12.862291 -19.583118 12.966540 -51.120300 -1.765932 19.439074 40.265097 18.089630 -13.932490 14.116578 6.653793 16.905796 -0.346600 5.992500 9.944100 10.082058 2.852048 -0.664962 -33.543551 -10.980987 -3.396828 18.721695 -27.247312 -6.757088 -1.682731 -4.562242 -16.812260 24.861497 13.854414 9.133900 -7.125000 0.000000 0.000000 -0.131200 49.833200 -0.015600 -14.247610 -3.800440 -0.495028 149.836413 5.911050 75.515808 -8.033110 13.115061 -3.122301 1.803127 3.855275 -21.067730 -13.482393 1.024169 0.588400 7.125000 0.000000 0.000000 8.020400 -31.973800 2.578600 
42.966292 17.715675 15.826984 37.045899 -79.094974 -42.976457 5.936496 2.078119 0.670631 -34.177649 -0.579160 10.857689 -1.894310 5.311728 16.010825 -3.256437 13.653802 -10.536188 0.337000 -3.730500 -10.319700 -7.121210 1.242633 -1.961211 27.231746 9.679932 -17.965083 -5.594340 -17.399067 48.284591 2.293609 -12.344137 -11.209210 -1.055100 6.531200 -18.333600 3.803747 -11.704066 -11.141586 -12.887725 -19.613842 12.918508 -50.974420 -1.902971 19.425221 39.843223 17.891923 -13.942927 14.180521 6.473335 17.034610 -0.301900 5.917000 9.956900 10.223211 2.979192 -0.673514 -33.415741 -11.118922 -3.132016 19.812794 -28.550023 -7.560183 -1.515076 -4.381505 -17.582621 24.098088 12.480710 8.067400 -7.125000 0.000000 0.000000 -0.794000 48.024600 -0.059300 -14.265009 -3.951170 -0.515988 149.690567 5.688048 75.561482 -7.962522 13.067457 -3.099727 1.848063 3.863022 -20.798428 -13.628038 0.980288 0.610300 7.125000 0.000000 0.000000 7.884000 -32.030200 2.523200 
42.758472 17.715791 15.901280 40.679094 -79.385525 -46.573836 6.047149 2.157879 0.656569 -34.919499 0.157021 12.339994 -2.036364 4.739949 14.632596 -3.359908 14.089196 -11.096555 0.288200 -3.452700 -9.541700 -6.968715 1.275051 -1.956198 27.259930 9.889023 -18.025743 -4.440731 -16.438587 44.246404 2.633814 -13.726752 -12.361578 -0.871100 5.950900 -16.642100 3.462079 -11.723291 -11.005305 -12.970112 -19.574431 12.925903 -50.616171 -2.130164 19.256196 39.198223 17.423738 -13.675576 14.336049 6.158330 17.176077 -0.249800 5.758500 9.863000 10.299403 3.137379 -0.688546 -33.505308 -11.188013 -2.367864 20.934482 -29.840020 -8.377277 -1.474101 -4.255857 -17.731747 24.174272 11.497047 7.552700 -7.125000 0.000000 0.000000 -0.622400 46.840400 -0.028300 -14.218142 -4.157078 -0.537751 149.369466 5.335504 75.577381 -7.920651 13.074901 -3.111275 1.857166 3.914971 -20.668406 -13.754821 0.791528 0.689200 7.125000 0.000000 0.000000 7.789200 -32.283000 2.444500 
42.543930 17.713936 15.973721 44.913102 -79.824946 -50.395762 6.136943 2.234050 0.632159 -35.371456 1.217175 13.455982 -2.188920 4.054490 12.913965 -3.418546 14.288443 -11.028394 0.211600 -2.961800 -8.172400 -6.834088 1.337778 -1.933499 27.320164 10.486591 -18.307186 -3.365518 -15.471691 40.350871 3.055880 -15.547078 -14.449561 -0.770100 5.603600 -15.638500 3.299530 -11.627997 -11.346885 -12.783357 -19.401271 12.659439 -50.650244 -2.023182 19.459811 39.213102 17.486757 -13.716674 14.235405 6.209012 17.255201 -0.301600 5.797400 9.935700 10.452234 3.183422 -0.694210 -33.593533 -11.279369 -2.021243 21.972801 -31.125437 -9.392220 -1.177779 -3.429474 -18.249079 20.170781 5.574989 3.498800 -7.125000 0.000000 0.000000 -3.888800 39.163300 0.560300 -14.236704 -4.193087 -0.536637 149.210161 5.263245 75.716790 -7.971432 13.149574 -3.143507 1.830205 3.980848 -20.655445 -13.832262 0.541681 0.790300 7.125000 0.000000 0.000000 7.760100 -32.617000 2.372200 
42.333676 17.699564 16.035499 48.550805 -80.041390 -53.653443 6.220371 2.324083 0.606579 -35.565736 2.692133 14.592808 -2.332591 3.212279 10.790186 -3.518087 14.490990 -10.043416 0.198300 -2.867700 -7.910600 -6.725284 1.391332 -1.900018 27.326728 11.164509 -18.539379 -2.436482 -14.532877 36.822940 3.528117 -17.697192 -17.149711 -0.721200 5.426600 -15.129400 3.119624 -11.670084 -11.636789 -12.716082 -19.410002 12.540196 -50.517096 -2.032771 19.621979 38.628360 17.423557 -13.883848 14.432042 6.145802 17.274625 -0.148100 5.751600 9.906700 10.536527 3.273164 -0.635266 -33.810585 -11.392424 -1.468041 23.101973 -32.121658 -9.954880 -1.336784 -4.317065 -18.446901 24.794020 11.868722 7.956100 -7.125000 0.000000 0.000000 -0.150800 47.420000 -0.009000 -14.265283 -4.279927 -0.550330 149.070891 5.191981 75.640886 -7.960701 13.144590 -3.145943 1.817557 3.974336 -20.469111 -13.790935 0.498357 0.802700 7.125000 0.000000 0.000000 7.818100 -32.668300 2.380500 
42.109861 17.687741 16.094264 52.425626 -80.175655 -57.159938 6.327665 2.428250 0.571696 -35.705141 4.238799 15.999996 -2.481473 2.171361 8.144375 -3.842289 15.406985 -8.599743 0.418400 -4.151600 -11.503700 -6.626805 1.444377 -1.849976 27.236380 11.950520 -18.631850 -1.666319 -13.681617 33.845729 3.629730 -18.932465 -20.809973 -0.339900 3.746300 -10.363900 2.969898 -11.683333 -11.993820 -12.648016 -19.380290 12.397165 -50.534774 -1.991765 19.841378 38.391650 17.544586 -14.157099 14.499012 6.167538 17.314706 -0.056500 5.768300 9.966400 10.596768 3.317418 -0.617406 -33.772690 -11.638975 -0.818144 23.758480 -32.765821 -10.483057 -1.247988 -4.220022 -18.694264 24.246742 11.205755 7.390600 -7.125000 0.000000 0.000000 -0.668300 46.522400 -0.025100 -14.252778 -4.344622 -0.545902 148.942446 5.144451 75.412326 -7.911270 13.109103 -3.147674 1.778643 3.855459 -20.427534 -13.427953 0.844436 0.649700 7.125000 0.000000 0.000000 8.130700 -32.199500 2.570100 
41.886279 17.674644 16.148508 55.757548 -80.055519 -60.238330 6.501464 2.620807 0.515543 -35.770897 6.072767 18.876265 -2.685098 0.184452 3.133235 -4.326809 16.926729 -5.728503 0.858500 -5.908700 -16.519800 -6.574992 1.461788 -1.792284 26.977246 12.667872 -18.592526 -1.086239 -12.972630 31.522250 3.562608 -19.796090 -24.301033 -0.164000 2.608800 -7.191500 2.697517 -11.760682 -12.258835 -12.604307 -19.445020 12.316989 -50.621284 -2.008148 20.019893 38.482302 17.635403 -14.303706 14.479382 6.131146 17.325658 -0.077100 5.758400 10.026700 10.662220 3.370327 -0.634101 -34.045631 -11.567448 -0.235007 24.478166 -33.504709 -11.066239 -1.263299 -4.030490 -18.488241 24.063795 9.698052 6.516600 -7.125000 0.000000 0.000000 -0.679700 44.655700 0.005800 -14.226339 -4.413385 -0.533622 148.806067 5.069848 75.531075 -7.860279 13.056356 -3.140925 1.775983 3.746347 -20.441338 -13.208412 1.193728 0.507800 7.125000 0.000000 0.000000 8.294200 -31.728500 2.717700 
41.671852 17.658417 16.207388 59.017615 -79.927445 -63.169210 6.603949 2.609347 0.454785 -36.041117 7.146462 19.432962 -2.660821 -0.070184 2.508682 -4.108880 16.238609 -4.788935 0.976200 -6.289600 -17.627000 -6.491295 1.519558 -1.746315 26.546475 13.461666 -18.664220 -0.668587 -12.465449 29.893118 3.196110 -19.885796 -27.705357 -0.004400 0.429500 -1.180100 2.583716 -11.808681 -12.492931 -12.533136 -19.516051 12.202280 -50.705167 -2.103408 19.990920 38.220738 17.560737 -14.259719 14.646925 6.051454 17.301660 0.004200 5.695900 9.963300 10.667513 3.432840 -0.661841 -34.438645 -11.315529 0.634687 25.241389 -34.261946 -11.642462 -1.192367 -4.194773 -18.048800 24.484801 11.250762 7.474300 -7.125000 0.000000 0.000000 -0.546600 46.631700 -0.022000 -14.155941 -4.505375 -0.532260 148.509656 4.931883 75.947169 -7.825443 12.996633 -3.124764 1.802775 3.727900 -20.302129 -13.291290 1.205940 0.501900 7.125000 0.000000 0.000000 8.216100 -31.698700 2.697600 
41.461367 17.635468 16.261400 62.861425 -80.037187 -66.869623 6.723146 2.592320 0.394258 -36.055718 8.387234 19.794982 -2.600823 -0.081214 2.561061 -3.715999 14.929955 -4.164678 0.875700 -5.966000 -16.685800 -6.434562 1.572065 -1.711719 26.418247 14.431097 -18.383261 -0.412194 -12.164651 28.883395 3.273000 -21.127451 -29.867073 -0.009200 0.620400 -1.704800 2.634774 -11.791649 -12.413455 -12.451669 -19.579362 12.115647 -50.683494 -2.223875 19.810132 38.002841 17.576293 -14.283663 14.711188 6.059867 17.294598 0.056300 5.686000 9.951300 10.609529 3.449815 -0.723628 -34.887967 -11.078761 1.293207 25.706384 -34.822736 -12.176218 -1.021664 -3.811982 -17.373276 21.986803 8.633221 5.345500 -7.125000 0.000000 0.000000 -2.774000 43.117600 0.129000 -13.991927 -4.529723 -0.519349 148.015987 4.866510 76.421302 -7.833656 12.979927 -3.143525 1.750261 3.720650 -19.916780 -13.159606 1.030303 0.554300 7.125000 0.000000 0.000000 8.398400 -31.904700 2.716500 
